<?xml version="1.0" encoding="iso-8859-1"?>
<!-- Generator: Adobe Illustrator 19.0.0, SVG Export Plug-In . SVG Version: 6.00 Build 0)  -->
<svg version="1.1" id="Layer_1" xmlns="http://www.w3.org/2000/svg" xmlns:xlink="http://www.w3.org/1999/xlink" x="0px" y="0px"
	 viewBox="0 0 421.6 421.6" style="enable-background:new 0 0 421.6 421.6;" xml:space="preserve">
<ellipse style="fill:#F4F0A4;" cx="210.8" cy="237.6" rx="180.8" ry="180"/>
<path style="fill:#FFFFFF;" d="M247.6,117.2v6.4h-74.8v-5.2c0,20.8-8.8,40.8-24.4,54.8c-20.8,18.4-33.2,46-30.8,76.4
	c3.6,45.6,41.2,82.8,87.2,85.6c54.4,3.6,99.2-39.6,99.2-92.8c0-27.6-12-52-31.2-69.2C257.2,158.8,247.6,138.8,247.6,117.2z"/>
<path style="fill:#454B54;" d="M210.8,347.2L210.8,347.2c-2.4,0-4.4,0-6.8-0.4c-52-3.2-94.4-44.8-98.4-96.8
	c-2.4-32.8,10.4-64.4,34.8-86.4c12.8-11.6,20-28,20-46c0-6.8,5.2-12,12-12c4,0,7.6,2,10,5.2h54.4c2-3.6,6-6.4,10.4-6.4
	c6.8,0,12,5.2,12,12c0,17.6,8,34.8,21.6,47.2c22.4,20,35.2,48.4,35.2,78c0,28-10.8,54.4-30.8,74.4
	C265.2,336.4,238.8,347.2,210.8,347.2z M183.2,135.6c-3.6,18-12.8,34.4-26.4,46.8c-19.2,16.8-28.8,41.2-26.8,66.8
	c3.2,40,35.6,72,75.6,74.4c24,1.6,46.4-7.2,62.8-23.6c15.2-15.2,24-35.6,24-57.2c0-22.8-10-44.8-27.2-60.4
	c-14-12.4-23.6-29.2-27.6-46.8H183.2z"/>
<g>
	<path style="fill:#F2EDAA;" d="M172.8,118.4c0,1.6,0,3.6-0.4,5.2h0.4V118.4z"/>
	<path style="fill:#F2EDAA;" d="M236.4,123.6L236.4,123.6c0-2,0-4,0-6.4V123.6z"/>
</g>
<path style="fill:#C7D7E2;" d="M247.6,123.6h-74.8V86.4c0-20.4,16.8-37.2,37.2-37.2l0,0c20.4,0,37.2,16.8,37.2,37.2v37.2H247.6z"/>
<g>
	<path style="fill:#454B54;" d="M247.6,135.6h-74.8c-6.8,0-12-5.2-12-12V86.4c0-27.2,22-49.2,49.2-49.2s49.6,22,49.6,49.2v37.2
		C259.6,130,254,135.6,247.6,135.6z M184.8,111.6h50.8V86.4c0-14-11.2-25.2-25.2-25.2c-14,0-25.6,11.2-25.6,25.2L184.8,111.6
		L184.8,111.6z"/>
	<path style="fill:#454B54;" d="M210.8,421.6c-6.8,0-12-5.2-12-12v-18.4c0-6.8,5.2-12,12-12c6.8,0,12,5.2,12,12v18.4
		C222.8,416.4,217.6,421.6,210.8,421.6z"/>
	<path style="fill:#454B54;" d="M329.6,372.8c-3.2,0-6-1.2-8.4-3.6L308,356c-4.8-4.8-4.8-12.4,0-16.8c4.8-4.8,12.4-4.8,16.8,0
		l13.2,13.2c4.8,4.8,4.8,12.4,0,16.8C335.6,371.6,332.8,372.8,329.6,372.8z"/>
	<path style="fill:#454B54;" d="M378.8,254.4H360c-6.8,0-12-5.2-12-12s5.2-12,12-12h18.8c6.8,0,12,5.2,12,12
		S385.6,254.4,378.8,254.4z"/>
	<path style="fill:#454B54;" d="M61.6,254.4H42.8c-6.8,0-12-5.2-12-12s5.2-12,12-12h18.8c6.8,0,12,5.2,12,12S68,254.4,61.6,254.4z"
		/>
	<path style="fill:#454B54;" d="M92,372.8c-3.2,0-6-1.2-8.4-3.6c-4.8-4.8-4.8-12.4,0-16.8l13.2-13.2c4.8-4.8,12.4-4.8,16.8,0
		c4.8,4.8,4.8,12.4,0,16.8l-13.2,13.2C98,371.6,95.2,372.8,92,372.8z"/>
	<path style="fill:#454B54;" d="M210,61.2c-6.8,0-12-5.2-12-12V12c0-6.8,5.2-12,12-12s12,5.2,12,12v37.2
		C222,55.6,216.8,61.2,210,61.2z"/>
</g>
<g>
</g>
<g>
</g>
<g>
</g>
<g>
</g>
<g>
</g>
<g>
</g>
<g>
</g>
<g>
</g>
<g>
</g>
<g>
</g>
<g>
</g>
<g>
</g>
<g>
</g>
<g>
</g>
<g>
</g>
</svg>
